<svg xmlns="http://www.w3.org/2000/svg" xmlns:xlink="http://www.w3.org/1999/xlink" version="1.1" id="Layer_1" x="0px" y="0px" width="70px" height="30px" viewBox="0 0 200 70" enable-background="new 0 0 200 70" xml:space="preserve">
<g id="Camada_1">
	<g>
		<g>
			<path fill="#185BA7" d="M27.457,65.936l2.064-41.373h19.44c3.972,7.755,7.691,15.572,11.106,23.195c0,0,0.926-15.318,0.99-23.195     h14.181l-2.017,41.373H54.671c-3.964-7.566-8.125-15.198-11.412-22.64l-0.868,22.64H27.457L27.457,65.936z"></path>
			<path fill="#185BA7" d="M99.016,37.07c-0.042-1.858,3.244-1.997,4.482-2.019c2.836-0.065,5.894,0.594,8.556,1.569l-0.527-11.685     c-3.972-0.711-8.045-1.113-12.054-1.023c-12.775,0.28-16.853,6.82-16.737,12.277c0.226,9.983,13.894,13.714,13.98,17.688     c0.043,1.857-3.247,1.932-4.671,1.961c-3.425,0.078-6.978-0.932-10.132-2.021l-0.537,11.887c4.23,0.526,9.858,1.386,14.202,1.286     c13.643-0.295,17.52-7.396,17.389-13.35C112.777,44.964,99.096,40.794,99.016,37.07"></path>
			<path fill="#185BA7" d="M134.195,37.07c-0.045-1.858,3.244-1.997,4.482-2.019c2.837-0.065,5.895,0.594,8.55,1.569l-0.544-12.159     c-3.968-0.709-8.028-0.638-12.035-0.548c-12.774,0.279-16.849,6.82-16.727,12.275c0.216,9.983,13.888,13.714,13.975,17.688     c0.045,1.857-3.244,1.933-4.669,1.961c-3.424,0.078-6.98-0.932-10.138-2.021l-0.534,11.887c4.228,0.528,9.864,1.386,14.202,1.286     c13.644-0.295,17.521-7.396,17.389-13.35C147.954,44.964,134.272,40.794,134.195,37.07"></path>
			<polygon fill="#185BA7" points="1.833,66.135 3.692,24.762 20.441,24.762 18.644,66.135    "></polygon>
		</g>
		<g>
			<g>
				<g>
					<g>
						<polygon fill="none" points="175.849,50.756 175.849,50.756 175.849,51.057 176.185,51.881 175.849,51.057       "></polygon>
						<path fill="#185BA7" d="M164.529,51.057V27.679c-5.659,3.881-9.372,10.392-9.372,17.774c0,11.611,9.189,21.074,20.694,21.518        V51.057H164.529L164.529,51.057z"></path>
						<path fill="#185BA7" d="M175.849,51.057v-0.305V39.846h1.085h10.311c-4.766,0-8.817-4.322-10.311-10.348        c-0.397-1.604-0.616-3.328-0.616-5.125c0-0.15,0.006-0.302,0.009-0.453c-4.372,0.074-8.43,1.447-11.797,3.754v23.379h11.319        V51.057L175.849,51.057z"></path>
						<path fill="#185BA7" d="M192.388,34.546v4.904v0.398v20.351c3.622-3.855,5.843-9.039,5.843-14.743        c0-3.981-1.083-7.708-2.967-10.907h-2.323h-0.553V34.546L192.388,34.546z"></path>
						<path fill="#185BA7" d="M176.934,29.501c1.496,6.025,5.545,10.347,10.311,10.347h0.543h4.601V39.45v-4.903v-0.477v-3.357        c-3.928-4.179-9.504-6.796-15.694-6.796c-0.122,0-0.243,0.007-0.37,0.009c-0.003,0.152-0.009,0.299-0.009,0.454        C176.317,26.173,176.536,27.897,176.934,29.501z"></path>
						<polygon fill="#FA0F0C" points="175.849,51.057 176.185,51.881 175.938,51.057       "></polygon>
						<polygon fill="#FA0F0C" points="175.938,51.057 175.849,50.756 175.849,51.057       "></polygon>
						<path fill="#185BA7" d="M187.787,39.849h-0.544h-10.31h-1.086v10.906l0,0l0,0l0.093,0.305l0.247,0.821l5.943,14.418        c3.987-1.036,7.523-3.19,10.26-6.103V39.846h-4.604V39.849L187.787,39.849z"></path>
						<polygon fill="#FA0F0C" points="175.849,50.756 175.849,50.756 175.938,51.057       "></polygon>
						<path fill="#185BA7" d="M176.185,51.881l-0.337-0.819v15.912c0.28,0.009,0.562,0.023,0.845,0.023        c1.879,0,3.698-0.241,5.436-0.691L176.185,51.881z"></path>
						<path fill="#185BA7" d="M192.943,34.066c0.746,0,1.474,0.09,2.188,0.25c-0.788-1.301-1.711-2.505-2.743-3.605v3.357h0.556        V34.066z"></path>
						<path fill="#185BA7" d="M192.388,34.066v0.477h0.556h2.323c-0.046-0.077-0.087-0.155-0.133-0.231        c-0.714-0.155-1.444-0.248-2.186-0.248L192.388,34.066L192.388,34.066z"></path>
					</g>
					<circle fill="none" stroke="#185BA7" stroke-width="2" stroke-miterlimit="10" cx="176.693" cy="45.453" r="21.541"></circle>
				</g>
			</g>
			<g>
				<g>
					<path fill="#FFFFFF" stroke="#292929" stroke-width="0.1" stroke-miterlimit="10" d="M192.08,40.479       c0-0.02-0.152-0.051-0.226-0.051c0,0.02,0,0.039,0.003,0.058C191.931,40.482,192.005,40.482,192.08,40.479z"></path>
					<path fill="#FFFFFF" stroke="#292929" stroke-width="0.1" stroke-miterlimit="10" d="M183.768,49.139       c-0.009,0.003-0.02,0.006-0.029,0.009c0.01,0.003,0.021,0.006,0.026,0.009c0-0.006,0.003-0.009,0.003-0.015       C183.771,49.142,183.771,49.142,183.768,49.139z"></path>
					<path fill="#FFFFFF" stroke="#292929" stroke-width="0.1" stroke-miterlimit="10" d="M192.507,40.476       c0.235-0.008,0.161-0.046,0.397-0.055c0-0.022-0.15-0.026-0.378-0.017C192.521,40.428,192.514,40.45,192.507,40.476z"></path>
					<polygon fill="#FFFFFF" stroke="#292929" stroke-width="0.1" stroke-miterlimit="10" points="179.845,63.939 179.889,63.933        179.856,63.909      "></polygon>
				</g>
			</g>
		</g>
		<path fill="#FFFFFF" stroke="#292929" stroke-width="0.1" stroke-linejoin="round" stroke-miterlimit="10" d="M187.607,40.178    c-0.087-0.008-1.248,0.006-1.332,0.006c-0.382-0.009-2.135,0.029-4.855,0.051c0.009-2.604,0.046-5.27,0.231-8.276    c0.067-1.096,0.174-2.196,0.278-3.296c0.03-0.295,0.114-0.588,0.149-0.883c0.046-0.383-0.176-0.519-0.688-0.451    c-0.135,0.019-0.276,0.013-0.415,0.019c-0.157,0.19-0.328,0.398-0.544,0.662c0.038-0.243,0.089-0.417,0.083-0.594    c0-0.068-0.102-0.177-0.189-0.193c-0.087-0.02-0.247,0.028-0.31,0.087c-0.082,0.077-0.108,0.187-0.145,0.286    c-0.041,0.115-0.069,0.234-0.104,0.349c-0.026-0.003-0.049-0.006-0.075-0.009c0.023-0.177,0.049-0.354,0.071-0.531    c-0.018-0.003-0.042-0.003-0.061-0.006c-0.049,0.083-0.099,0.171-0.199,0.341c0.023-0.226,0.032-0.357,0.05-0.54    c-0.371,0.153-0.692-0.239-1.057,0.028c-0.145-0.305-0.551-0.212-0.84-0.224c-0.392-0.018-0.51,0.015-0.923-0.095    c-0.414-0.109-0.738-0.062-0.908,0.109c-0.242-0.115-0.486-0.328-0.721-0.321c-0.387,0.007-0.698-0.12-1.052-0.155    c-0.483-0.051-1.01-0.022-1.194,0.64c-0.631,2.302-0.761,8.457-0.752,13.032c-2.864-0.042-6.028-0.116-9.362-0.25    c-0.668-0.063-1.351-0.065-2.021-0.02c-1.046,0.073-1.351,0.453-1.269,1.44c0.008,0.071,0.035,0.139,0.059,0.231    c0.187,0.009,0.369,0.02,0.6,0.028c-0.496,0.428-0.548,0.512-0.676,1.139c0.167-0.006,0.209-0.006,0.365-0.014    c-0.15,0.219-0.18,0.436-0.244,0.528c0.07,0.24,0.157,0.379,0.121,0.437c-0.282,0.415,0.062,0.942-0.263,1.34    c0.241,0.471,0.032,0.969-0.089,1.373c-0.304,1.007-0.255,2.033-0.383,3.045c-0.02,0.152-0.178,0.92,0.09,1.143    c0.35,0.292,1.293,0.196,1.683,0.132c2.05-0.338,3.433-0.321,5.309-0.477c1.06-0.086,1.869-0.183,2.958-0.299    c0.212-0.022,0.434,0.07,0.651,0.087c0.22,0.016,0.448,0.039,0.664,0c0.469-0.087,0.947-0.341,1.411-0.129    c0.145,0.068,0.346,0.036,0.518,0.017c0.157-0.017,0.313-0.035,0.469-0.055c0.003,0.003,0.009,0.006,0.013,0.009    c0.181,0.139-0.073,0.139-0.218,0.142c-0.014,0.245-0.029,0.488-0.043,0.717c0.106,0.059,0.266,0.101,0.301,0.177    c0.047,0.093-0.007,0.202-0.223,0.155c-0.022-0.008-0.134,0.111-0.119,0.128c-0.026,0.607,0.119,2.791,0.119,2.791    c-0.154,0.12-0.286,0.202-0.212,0.428c0.093,0.28,0.1,0.569,0.299,0.836c0.174,0.235,0.098,0.354-0.145,0.453    c0.074,0.158,0.145,0.31,0.213,0.457c0.035,0.081,0.064,0.164,0.097,0.248c0.018-0.087,0.039-0.177,0.069-0.321    c0.145,0.218,0.21,0.292-0.019,0.382c0.097,0.133,0.147,0.097,0.244,0.226c0.048-0.213,0.074-0.327,0.121-0.54    c0.038,0.003,0.078,0.006,0.116,0.009c0.017,0.254,0.033,0.512,0.049,0.774c0.101,0.013,0.187,0.023,0.276,0.032    c-0.003,0.026,0.007,0.071-0.017,0.077c-0.221,0.091-0.396,0.178-0.24,0.402c0.035,0.052-0.084,0.157-0.161,0.292    c-0.067-0.376-0.114-0.646-0.168-0.941c-0.061,0.045-0.232,0.091-0.362,0.157c0.067,0.305,0.1,0.611-0.265,0.839    c0.251,0.084,0.468,0.154,0.676,0.223c0.031-0.023,0.078-0.06,0.205-0.155c0.018,0.324,0.035,0.814,0.04,0.814    c-0.033,0.463-0.078,1.88-0.065,2.131c0.031,0.004,0.065,0.004,0.096,0.007c0.046-0.101,0.089-0.199,0.145-0.332    c0.133,0.106,0.233,0.188,0.269,0.216c-0.073,0.151-0.127,0.261-0.188,0.39c-0.09,0.003-0.218,0.013-0.367,0.019    c0.027,0.065,0.036,0.106,0.06,0.145c0.199,0.373,0.466,0.74,0.257,1.154c-0.103,0.199,0.035,0.039,0.067,0.222    c0.029,0.174-0.209,0.381-0.15,0.538c0.115,0.321-0.032,0.604-0.098,0.902c-0.059,0.264-0.094,1.457-0.062,1.457    c0.056-0.248,0.109-0.491,0.165-0.738c0.035,0.003,0.067,0.003,0.104,0.006c-0.023,0.373-0.046,0.749-0.068,1.122    c0.589-1.817,0.569-3.348,0.881-5.176c0.247,1.854,0.119,3.378-0.117,5.23c0.088-0.199,0.123-0.404,0.181-0.608    c0.053-0.177-0.103-0.397,0.212-0.533c-0.009,0.16-0.018,0.308-0.026,0.455c0.029,0,0.062,0,0.092,0    c0.047-0.34,0.093-0.681,0.141-1.021c0.219,0.338,0.033,0.665,0.033,0.997c0,0,0.172-0.254,0.188-0.382    c0.139-1.065,0.225-1.806,0.351-2.868c0.003-0.026,0.009-0.055,0.012-0.081c0.071,0.038,0.114,0.151,0.114,0.183    c-0.005,0.46,0.009,0.593-0.005,1.052c-0.006,0.261-0.006,0.521-0.009,0.784c0.038,0,0.077,0,0.115,0    c0.064-0.283,0.127-0.566,0.191-0.848c0.041,0,0.083,0.003,0.124,0.003c-0.006,0.568-0.012,1.138-0.02,1.707    c0.213-0.931,0.303-1.532,0.395-2.462c0.088-0.918,0.066-1.838,0.354-2.74c-0.018,1.504,0.003,2.684-0.015,4.192    c0.035,0,0.07,0,0.104,0.003c0.067-1.145,0.103-1.964,0.168-3.113c0.041,0,0.085,0,0.128,0.005    c-0.022,1.18-0.014,2.032-0.035,3.212c0.417-0.627,0.229-1,0.564-1.74c-0.003,0.853,0.023,1.271,0.021,2.017    c0.638-1.739,0.379-2.849,0.693-4.607c0.023,0.724,0.053,1.09,0.038,1.811c-0.003,0.118,0.092,0.365,0.092,0.365    c0.062-0.735,0.055-0.654,0.115-1.392c0.304,1.446,0.01,1.961,0.165,3.514c0.241-0.278,0.275-0.578,0.292-0.894    c0.046-0.964,0.073-1.604,0.15-2.568c0.047-0.561,0.122-1.119,0.191-1.675c0.009-0.074,0.041-0.145,0.063-0.22    c0.344,0.399,0.113,0.808,0.136,1.207c0.022,0.396-0.029,0.8-0.055,1.202c-0.026,0.414-0.067,0.83-0.076,1.247    c-0.016,0.39,0.035,0.453,0.041,0.843c0.027,0,0.061,0,0.09,0c0.035-0.161,0.07-0.319,0.104-0.479    c0.029,0.003,0.057,0.003,0.084,0.007c0.014,0.289,0.029,0.578,0.043,0.869c0.026,0,0.047,0,0.073,0.003    c0.104-1.438,0.175-2.552,0.273-3.99c0.043,0.003,0.084,0.003,0.125,0.006c-0.029,0.533-0.07,1.064-0.082,1.599    c-0.008,0.321,0.038,0.646,0.061,0.967c0,0,0.396-3.25,0.533-4.777c0.188-2.064,0.441-6.109,0.509-7.896    c0.336-0.023,0.679-0.049,1.015-0.072c0.563-0.035,1.142,0.062,1.541-0.523c0.106,0.171,0.176,0.283,0.243,0.392    c0.003,0,0.003,0,0.009-0.003c0,0.003-0.006,0.006-0.006,0.006c0.006,0.008,0.011,0.017,0.015,0.024    c-0.007-0.005-0.015-0.008-0.021-0.008c-0.003,0.008-0.003,0.014-0.006,0.023c0,0,0.022-0.01,0.026-0.013l0,0l-0.026,0.013    c0.376-0.064,0.804-0.078,1.238-0.151c-0.226-0.033-0.392-0.055-0.563-0.08c1.852-0.116,4.763-0.264,6.602-0.348    c1.019-0.046,1.051,0,2.073-0.02c0.858-0.016,1.715-0.055,2.576-0.084c-0.035-0.373-0.035-0.373-0.258-0.437    c-0.01-0.007,0.146-0.212,0.226-0.226c0.188-0.035,0.389-0.022,0.585-0.028c-0.005-0.042-2.059-0.212-3.085-0.258    c0.659-0.275,1.435,0.081,2.192-0.472c-0.382-0.035-0.619-0.067-0.857-0.075c-0.251-0.006-0.502,0.023-0.749,0.011    c-0.192-0.011-0.41-0.02-0.563-0.112c-0.189-0.117-0.166-0.149-0.494-0.196c-0.238-0.035-0.478-0.09-0.879-0.171    c0.611-0.02,1.136-0.19,1.477-0.017c0.509,0.261,0.972,0.139,1.452,0.136c0.593-0.003,1.185-0.035,1.775-0.055    c0.005-0.016,0.005-0.035,0.008-0.052c-0.65-0.058-1.299-0.116-1.948-0.174c0-0.044,0.003-0.087,0.003-0.131    c0.469-0.017,0.938-0.032,1.408-0.049c-0.003-0.025-2.608-0.09-4.063-0.109c-0.003-0.052-0.009-0.103-0.012-0.154    c0.659-0.074,1.014-0.189,1.673-0.248c0.369-0.032,0.746-0.02,1.122-0.028c0.896-0.021,0.868-0.064,1.765-0.075    c0.342-0.003,0.589-0.03,0.932-0.015c0.003-0.059-0.542-0.182-1.334-0.226c-0.595-0.032-1.19-0.061-1.784-0.116    c-0.289-0.025-0.574-0.128-0.863-0.145c-0.726-0.041-1.146-0.026-1.875-0.049c-0.009-0.047-0.018-0.096-0.023-0.145    c0.256-0.085,0.212-0.202,0.469-0.284c-0.009-0.049-0.636-0.104-1.437-0.078c0-0.052-0.003-0.101-0.003-0.152    c1.768-0.061,2.542-0.104,4.228-0.162c-0.842-0.081-1.762-0.165-2.683-0.251c0.52-0.231,1.046-0.392,1.58-0.415    c0.992-0.042,1.995-0.004,2.99,0.003c0.004-0.055-1.305-0.232-2.045-0.271c0.296-0.066,0.505-0.112,0.713-0.16    c-0.006-0.028-1.893-0.147-2.831-0.181c0-0.041,0-0.079,0-0.12c0.671-0.024,1.339-0.046,2.012-0.068    c0-0.035-0.003-0.07-0.003-0.109c-0.493-0.042-0.98-0.081-1.61-0.133c0.53-0.278,0.986,0.085,1.365-0.137    c-0.006-0.064-0.009-0.125-0.015-0.19c-0.743,0.026-1.486,0.052-2.232,0.077c-0.003-0.058-0.003-0.115-0.006-0.171    c0.997-0.036,1.99-0.066,2.932-0.1c-0.025-0.15-3.584-0.367-5.843-0.351c0-0.046-0.003-0.087-0.003-0.131    c1.749-0.063,2.504-0.106,4.25-0.164c-0.651-0.11-1.006,0.028-1.636-0.062c-0.647-0.093-0.626,0.223-1.408-0.205    c1.125-0.084,1.098-0.142,2.062-0.213c0-0.026-1.262-0.064-2.383-0.052c-0.004-0.051-0.004-0.103-0.007-0.154    c0.476-0.044,0.951-0.087,1.424-0.131c-0.668-0.071-1.324-0.014-1.983,0.03c-0.108,0.008-0.226-0.041-0.337-0.061    c-0.155-0.026-0.306-0.058-0.458-0.087c2.229-0.096,3.521-0.311,5.741-0.386C194.706,39.968,190.111,40.094,187.607,40.178     M192.146,42.193c0,0.024,0,0.047,0.004,0.073c-0.471,0.017-0.255-0.013-0.727,0.003c0-0.026,0-0.049-0.003-0.073    C191.893,42.18,191.677,42.209,192.146,42.193z M173.546,61.401c0.016-0.006,0.029-0.009,0.045-0.017    c0.008,0.014,0.014,0.026,0.02,0.035L173.546,61.401z M173.546,64.279c-0.01,0-0.02-0.003-0.028-0.003    c0.007-0.059,0.016-0.113,0.021-0.171c0.021,0.006,0.039,0.014,0.057,0.017C173.578,64.177,173.562,64.228,173.546,64.279z     M174.516,60.063c-0.035-0.038-0.066-0.076-0.102-0.119c-0.096,0.026-0.017-0.022-0.138,0.014    c-0.026-0.058-0.062-0.101-0.053-0.106c0.186-0.112,0.029-0.15,0-0.338c-0.032-0.205-0.16-0.439,0.177-0.64    c0.145-0.083,0.098-0.341,0.142-0.546c-0.103-0.02-0.076-0.017-0.2-0.043c0.004-0.099,0.009-0.202,0.015-0.305    c0.012,0,0.061,0.11,0.222,0.215c0.009-0.167,0.016-0.267,0.023-0.408c0.066,0.064,0.131,0.101,0.131,0.13    C174.7,58.629,174.657,59.334,174.516,60.063z M174.623,64.505c-0.01-0.004-0.035-0.007-0.032-0.01    c0.003-0.028,0.011-0.058,0.017-0.087c0.012,0.004,0.035,0.01,0.035,0.013C174.635,64.45,174.629,64.479,174.623,64.505z     M174.744,63.954c-0.019-0.003-0.038-0.003-0.058-0.006c0.029-0.136,0.063-0.268,0.09-0.401c0.02,0.003,0.039,0.003,0.058,0.006    C174.807,63.688,174.778,63.822,174.744,63.954z M174.784,63.166l-0.021-0.073l0.094,0.029L174.784,63.166z M175.976,62.842    c-0.012-0.003-0.031-0.003-0.034-0.006c-0.007-0.014-0.004-0.026-0.007-0.038c0.023,0.003,0.041,0.006,0.064,0.009    C175.993,62.819,175.981,62.832,175.976,62.842z M177.555,61.983c-0.003-0.026-0.009-0.052-0.007-0.073    c0-0.008,0.032-0.014,0.05-0.02c0.003,0.025,0.012,0.052,0.009,0.077C177.604,61.974,177.571,61.98,177.555,61.983z     M177.639,61.676c-0.029-0.011-0.059-0.017-0.087-0.026c0.031-0.039,0.065-0.077,0.096-0.117c0,0,0.033,0.011,0.033,0.014    C177.668,61.592,177.652,61.633,177.639,61.676z M177.633,61.263l-0.026-0.093l0.104,0.035L177.633,61.263z M179.774,62.526    c-0.042-0.003-0.083-0.006-0.126-0.009c0.014-0.122,0.025-0.248,0.039-0.37c0.035,0,0.07,0.003,0.105,0.003    C179.786,62.277,179.78,62.402,179.774,62.526z M188.423,40.788c0.405-0.014,1.229,0.026,1.229,0.035    c-0.407,0.012-0.814,0.028-1.222,0.041C188.433,40.855,188.423,40.794,188.423,40.788z"></path>
		<g>
			<path fill="#185BA7" d="M18.492,2.155c-0.501,1.239-0.987,2.402-1.44,3.462c-0.457,1.062-0.958,2.209-1.504,3.443L13.9,12.775     c-0.446,1.006-0.858,1.945-1.234,2.822c-0.245-0.761-0.499-1.526-0.762-2.283c-0.335-0.964-0.798-2.275-1.389-3.934     C9.923,7.725,9.447,6.369,9.086,5.318c-0.36-1.041-0.704-2.1-1.025-3.141L8.009,2.006H5.405L5.389,2.231     c-0.09,1.302-0.193,2.713-0.305,4.235c-0.113,1.52-0.212,2.822-0.296,3.909c-0.083,1.087-0.187,2.299-0.305,3.644     c-0.12,1.337-0.249,2.629-0.38,3.843l-0.028,0.267h1.983l0.003-0.239c0.02-1.057,0.062-2.157,0.129-3.272     c0.065-1.11,0.151-2.315,0.253-3.583c0.104-1.27,0.209-2.539,0.319-3.816c0.071-0.85,0.136-1.631,0.187-2.34     c1.26,3.47,2.784,7.864,4.54,13.085l0.055,0.165h1.978l0.062-0.149c0.556-1.327,1.222-2.9,1.994-4.712     c0.771-1.814,1.495-3.489,2.161-5.02c0.53-1.223,1.048-2.405,1.55-3.554c-0.028,2.734-0.058,5.049-0.09,6.946     c-0.036,2.107-0.096,4.206-0.18,6.242l-0.009,0.251h2.039V17.89c0-1.913-0.016-3.38-0.045-4.354l0.074-5.429     c0.012-0.782,0.026-1.645,0.042-2.589c0.016-0.945,0.042-2.032,0.071-3.264l0.006-0.248h-2.636L18.492,2.155z"></path>
			<path fill="#185BA7" d="M24.1,2.248c0,4.652-0.206,9.907-0.611,15.624l-0.02,0.261h9.994l0.074-1.74l-0.267,0.016     c-1.023,0.061-2.02,0.09-2.962,0.09h-4.729l0.215-5.766h7.28l0.065-1.634h-7.28l0.215-5.459h5.383     c1.035,0,1.819,0.016,2.328,0.046L34.032,3.7l0.065-1.694H24.1V2.248L24.1,2.248z"></path>
			<path fill="#185BA7" d="M47.865,2.003l-0.003,0.239c-0.044,3.122-0.187,6.298-0.42,9.449c-0.071,1.084-0.231,1.975-0.479,2.64     c-0.241,0.653-0.569,1.158-0.971,1.505c-0.405,0.347-0.897,0.594-1.467,0.729c-0.588,0.14-1.32,0.212-2.18,0.212     c-3.031,0-4.507-1.388-4.507-4.247c0.019-1.196,0.054-2.321,0.103-3.348c0.048-1.032,0.106-2.036,0.167-3.009     c0.065-0.975,0.151-2.28,0.268-3.911l0.019-0.26h-2.138L36.251,2.24c-0.016,1.168-0.081,2.958-0.196,5.325     c-0.116,2.376-0.174,4.232-0.174,5.518c0,0.875,0.161,1.659,0.476,2.334c0.319,0.678,0.772,1.248,1.351,1.688     c0.572,0.437,1.248,0.764,2.013,0.98c0.756,0.211,1.595,0.321,2.489,0.321c1.318,0,2.437-0.125,3.328-0.373     c0.907-0.25,1.649-0.659,2.212-1.206c0.561-0.55,0.981-1.27,1.245-2.141c0.26-0.853,0.414-1.924,0.463-3.187     c0.029-1.035,0.068-2.007,0.109-2.914c0.042-0.907,0.1-2.019,0.171-3.337c0.074-1.318,0.125-2.318,0.161-2.997L49.91,2h-2.045     V2.003L47.865,2.003z"></path>
		</g>
	</g>
</g>
</svg>
